<svg width="122" height="33" viewBox="0 0 122 33" fill="none" xmlns="http://www.w3.org/2000/svg">
<path d="M54.2942 23.3722C54.2942 23.6241 54.09 23.8284 53.8381 23.8284H51.3675C51.2219 23.8284 51.0851 23.7589 50.9992 23.6414L44.6293 14.9278C44.3689 14.5716 43.8049 14.7558 43.8049 15.197V23.3722C43.8049 23.6241 43.6006 23.8284 43.3487 23.8284H40.9874C40.7355 23.8284 40.5312 23.6241 40.5312 23.3722V8.90781C40.5312 8.65588 40.7355 8.45165 40.9874 8.45165H43.6667C43.8116 8.45165 43.9478 8.52047 44.0338 8.63706L50.1973 16.9947C50.4586 17.349 51.0206 17.1642 51.0206 16.724V8.90781C51.0206 8.65588 51.2249 8.45165 51.4768 8.45165H53.8381C54.09 8.45165 54.2942 8.65588 54.2942 8.90781V23.3722Z" fill="#081519"/>
<path d="M66.2248 24.105C63.9041 24.105 61.983 23.3596 60.4614 21.8688C58.9553 20.3627 58.2022 18.4569 58.2022 16.1515C58.2022 13.8462 58.9553 11.9481 60.4614 10.4573C61.983 8.95114 63.9041 8.19806 66.2248 8.19806C68.5609 8.19806 70.482 8.94346 71.9882 10.4343C73.5097 11.9251 74.2705 13.8308 74.2705 16.1515C74.2705 18.4723 73.5097 20.378 71.9882 21.8688C70.482 23.3596 68.5609 24.105 66.2248 24.105ZM62.8359 19.771C63.6966 20.7238 64.8262 21.2003 66.2248 21.2003C67.6234 21.2003 68.753 20.7238 69.6137 19.771C70.4744 18.8181 70.9047 17.6116 70.9047 16.1515C70.9047 14.6915 70.4744 13.485 69.6137 12.5321C68.753 11.5792 67.6234 11.1028 66.2248 11.1028C64.8262 11.1028 63.6966 11.5792 62.8359 12.5321C61.9906 13.485 61.568 14.6915 61.568 16.1515C61.568 17.6116 61.9906 18.8181 62.8359 19.771Z" fill="#081519"/>
<path d="M90.9236 23.1092C91.1368 23.4114 90.9207 23.8284 90.5509 23.8284H87.7525C87.6019 23.8284 87.4611 23.7541 87.376 23.6299L84.0373 18.7517C83.8564 18.4874 83.4667 18.4869 83.2851 18.7506L79.9249 23.6309C79.8398 23.7545 79.6993 23.8284 79.5492 23.8284H76.7745C76.4044 23.8284 76.1883 23.4108 76.4021 23.1087L81.2866 16.2058C81.3978 16.0488 81.3984 15.8389 81.2882 15.6811L76.7398 9.16901C76.5286 8.86664 76.7449 8.45165 77.1137 8.45165H79.8915C80.0435 8.45165 80.1856 8.52739 80.2703 8.65363L83.2807 13.1397C83.4621 13.41 83.86 13.4088 84.0398 13.1374L87.0077 8.65593C87.0922 8.52836 87.2351 8.45165 87.3881 8.45165H90.2086C90.5778 8.45165 90.794 8.86724 90.5822 9.16955L86.0361 15.6583C85.9257 15.8159 85.926 16.0258 86.0369 16.1831L90.9236 23.1092Z" fill="#081519"/>
<path d="M105.378 23.3722C105.378 23.6241 105.173 23.8284 104.922 23.8284H94.9526C94.7006 23.8284 94.4964 23.6241 94.4964 23.3722V8.90781C94.4964 8.65588 94.7006 8.45165 94.9526 8.45165H104.922C105.173 8.45165 105.378 8.65588 105.378 8.90781V10.8772C105.378 11.1291 105.173 11.3333 104.922 11.3333H98.2262C97.9742 11.3333 97.77 11.5376 97.77 11.7895V14.1277C97.77 14.3797 97.9742 14.5839 98.2262 14.5839H104.76C105.012 14.5839 105.216 14.7881 105.216 15.0401V17.0094C105.216 17.2614 105.012 17.4656 104.76 17.4656H98.2262C97.9742 17.4656 97.77 17.6698 97.77 17.9218V20.4905C97.77 20.7425 97.9742 20.9467 98.2262 20.9467H104.922C105.173 20.9467 105.378 21.1509 105.378 21.4028V23.3722Z" fill="#081519"/>
<path d="M121.593 23.1403C121.773 23.4443 121.553 23.8284 121.2 23.8284H118.511C118.345 23.8284 118.192 23.7382 118.112 23.5929L115.352 18.6002C115.272 18.4549 115.119 18.3647 114.953 18.3647H113.28C113.028 18.3647 112.824 18.5689 112.824 18.8208V23.3722C112.824 23.6241 112.62 23.8284 112.368 23.8284H110.007C109.755 23.8284 109.551 23.6241 109.551 23.3722V8.90781C109.551 8.65588 109.755 8.45165 110.007 8.45165H116.743C118.326 8.45165 119.579 8.91272 120.501 9.83486C121.439 10.757 121.907 11.9481 121.907 13.4082C121.907 14.6684 121.577 15.6905 120.916 16.4743C120.412 17.0862 119.819 17.5248 119.137 17.7902C118.85 17.9021 118.702 18.244 118.859 18.5098L121.593 23.1403ZM116.259 15.483C116.935 15.483 117.489 15.2986 117.919 14.9297C118.349 14.5455 118.565 14.0383 118.565 13.4082C118.565 12.778 118.349 12.2785 117.919 11.9097C117.489 11.5255 116.935 11.3333 116.259 11.3333H113.28C113.028 11.3333 112.824 11.5376 112.824 11.7895V15.0268C112.824 15.2788 113.028 15.483 113.28 15.483H116.259Z" fill="#081519"/>
<g filter="url(#filter0_ii_2204_478)">
<rect width="32.408" height="32.408" rx="6.76447" fill="#081519"/>
</g>
<g filter="url(#filter1_i_2204_478)">
<path d="M26.7501 6.07904V26.3904C26.7501 26.9283 26.3124 27.3654 25.7737 27.3654H22.48C22.3726 27.3507 22.1985 27.3134 22.0114 27.2029C21.7884 27.0712 21.6599 26.9023 21.598 26.8064L11.2959 13.4179C11.1885 13.2783 10.9652 13.3543 10.9652 13.5304V26.3904C10.9652 26.9283 10.5275 27.3654 9.98881 27.3654H6.69514C6.1565 27.3654 5.71875 26.9283 5.71875 26.3904V6.07904C5.71875 5.5412 6.1565 5.1041 6.69514 5.1041H9.98881C10.1499 5.1041 10.7829 5.1041 11.0775 5.22921C11.2451 5.29259 11.3932 5.40308 11.5038 5.54445L21.173 18.1122C21.2804 18.2519 21.5037 18.1759 21.5037 17.9998V6.07904C21.5037 5.5412 21.9414 5.1041 22.48 5.1041H25.7737C26.3124 5.1041 26.7501 5.5412 26.7501 6.07904Z" fill="#1EA489"/>
</g>
<defs>
<filter id="filter0_ii_2204_478" x="0" y="0" width="32.7154" height="32.6539" filterUnits="userSpaceOnUse" color-interpolation-filters="sRGB">
<feFlood flood-opacity="0" result="BackgroundImageFix"/>
<feBlend mode="normal" in="SourceGraphic" in2="BackgroundImageFix" result="shape"/>
<feColorMatrix in="SourceAlpha" type="matrix" values="0 0 0 0 0 0 0 0 0 0 0 0 0 0 0 0 0 0 127 0" result="hardAlpha"/>
<feOffset dy="0.245981"/>
<feGaussianBlur stdDeviation="0.491962"/>
<feComposite in2="hardAlpha" operator="arithmetic" k2="-1" k3="1"/>
<feColorMatrix type="matrix" values="0 0 0 0 0.423529 0 0 0 0 0.870588 0 0 0 0 0.756863 0 0 0 0.2 0"/>
<feBlend mode="normal" in2="shape" result="effect1_innerShadow_2204_478"/>
<feColorMatrix in="SourceAlpha" type="matrix" values="0 0 0 0 0 0 0 0 0 0 0 0 0 0 0 0 0 0 127 0" result="hardAlpha"/>
<feOffset dx="0.307476" dy="0.245981"/>
<feGaussianBlur stdDeviation="0.614952"/>
<feComposite in2="hardAlpha" operator="arithmetic" k2="-1" k3="1"/>
<feColorMatrix type="matrix" values="0 0 0 0 0.423529 0 0 0 0 0.870588 0 0 0 0 0.756863 0 0 0 0.3 0"/>
<feBlend mode="normal" in2="effect1_innerShadow_2204_478" result="effect2_innerShadow_2204_478"/>
</filter>
<filter id="filter1_i_2204_478" x="5.71875" y="4.85811" width="21.0314" height="22.5072" filterUnits="userSpaceOnUse" color-interpolation-filters="sRGB">
<feFlood flood-opacity="0" result="BackgroundImageFix"/>
<feBlend mode="normal" in="SourceGraphic" in2="BackgroundImageFix" result="shape"/>
<feColorMatrix in="SourceAlpha" type="matrix" values="0 0 0 0 0 0 0 0 0 0 0 0 0 0 0 0 0 0 127 0" result="hardAlpha"/>
<feOffset dy="-0.245981"/>
<feGaussianBlur stdDeviation="0.922428"/>
<feComposite in2="hardAlpha" operator="arithmetic" k2="-1" k3="1"/>
<feColorMatrix type="matrix" values="0 0 0 0 0.423529 0 0 0 0 0.870588 0 0 0 0 0.756863 0 0 0 1 0"/>
<feBlend mode="normal" in2="shape" result="effect1_innerShadow_2204_478"/>
</filter>
</defs>
</svg>
